<svg xmlns="http://www.w3.org/2000/svg" width="32" height="32" viewBox="0 0 8.467 8.467"><path fill-rule="evenodd" d="M 15.996094 1.0039062 C 9.9461167 1.0039062 5.005859 5.9529327 5.0058594 12.001953 L 5.0058594 16.003906 C 5.005859 19.079875 3.8008518 21.680161 3.3144531 22.654297 C 2.3362392 24.613453 3.8138894 26.994141 6.0019531 26.994141 L 11.099609 26.994141 C 11.564181 29.271672 13.590699 31 16 31 C 18.409301 31 20.435819 29.271672 20.900391 26.994141 L 25.998047 26.994141 C 28.185693 26.994141 29.654433 24.610429 28.677734 22.654297 C 28.193662 21.68481 26.996094 19.081235 26.996094 16.003906 L 26.996094 12.001953 C 26.996094 5.9520256 22.04607 1.0039062 15.996094 1.0039062 z M 15.996094 2.9960938 C 20.956943 2.9960938 25.001953 7.041172 25.001953 12.001953 L 25.001953 16.003906 C 25.001953 19.593248 26.36388 22.495815 26.892578 23.554688 C 27.242687 24.255903 26.780535 25.001953 25.998047 25.001953 L 6.0019531 25.001953 C 5.2134246 25.001953 4.7500831 24.258625 5.1015625 23.554688 C 5.6291014 22.498196 6.9980469 19.594609 6.9980469 16.003906 L 6.9980469 12.001953 C 6.9980469 7.040265 11.035244 2.9960938 15.996094 2.9960938 z M 15.996094 4.9960938 C 12.135395 4.9960938 8.9980469 8.1412413 8.9980469 12.001953 A 1.0002459 1.0002459 0 0 0 10.998047 12.001953 C 10.998047 9.2146649 13.208793 6.9980469 15.996094 6.9980469 A 1.000252 1.000252 0 1 0 15.996094 4.9960938 z M 10 15 A 0.99999995 0.99999995 0 0 0 9 16 A 0.99999995 0.99999995 0 0 0 10 17 A 0.99999995 0.99999995 0 0 0 11 16 A 0.99999995 0.99999995 0 0 0 10 15 z M 13.179688 26.994141 L 18.820312 26.994141 C 18.412405 28.164329 17.317199 29 16 29 C 14.682801 29 13.587595 28.164329 13.179688 26.994141 z " color="#000" font-family="sans-serif" font-weight="400" overflow="visible" paint-order="stroke fill markers" transform="scale(.26458)" style="line-height:normal;font-variant-ligatures:normal;font-variant-position:normal;font-variant-caps:normal;font-variant-numeric:normal;font-variant-alternates:normal;font-feature-settings:normal;text-indent:0;text-align:start;text-decoration-line:none;text-decoration-style:solid;text-decoration-color:#000;text-transform:none;text-orientation:mixed;shape-padding:0;isolation:auto;mix-blend-mode:normal"/></svg>